<?xml version="1.0" encoding="utf-8"?>
<!-- Generator: Adobe Illustrator 19.0.0, SVG Export Plug-In . SVG Version: 6.00 Build 0)  -->
<svg version="1.1" id="Layer_1" xmlns="http://www.w3.org/2000/svg" xmlns:xlink="http://www.w3.org/1999/xlink" x="0px" y="0px"
	 width="110px" height="100px" viewBox="-23 -40.4 110 100" style="enable-background:new -23 -40.4 110 100;" xml:space="preserve"
	>
<style type="text/css">
	.st0{fill:#112B36;}
	.st1{fill:#96AAB8;}
</style>
<g>
	<path class="st0" d="M87-33.2c0-2.1-0.7-3.9-2-5.2c-1.3-1.3-3.1-2-5.2-2c-16.2,0-28.2,0.1-45.3,0.1c-16.1,0-32.5,0-50.4-0.1
		c-2,0-3.8,0.7-5.1,2c-1.3,1.3-2,3.1-2,5.2c0.1,15.5,0.1,25.5,0.1,38.1c0,5,0,10.3,0,16.5c0,4.4,2.6,7,7,7c16.8,0,33.6,0,50.4,0
		c13.6,0,23.9,0,36.1,0l9.3,0c4.4,0,7-2.6,7-7c0-6.2,0-11.5,0-16.4C86.9-7.7,86.9-17.7,87-33.2z M81.2,21.5c0,1,0,1.2-1.3,1.2
		c-16.8,0-28.6,0-45.5,0c-16.8,0-33.6,0-50.5,0c-1.2,0-1.3-0.1-1.3-1.2c0-14.7,0-29.1,0-43.7c0-0.1,0-0.1,0-0.2h98.5
		c0,0.1,0,0.2,0,0.2C81.3-7.6,81.3,6.8,81.2,21.5z"/>
	<path class="st1" d="M-3.4-2.8c0-2.2,0-4.3,0-6.4c10.7,0,60.1,0,70.8,0c0,2.2,0,4.2,0,6.4C56.7-2.8,7.3-2.8-3.4-2.8z"/>
	<path class="st1" d="M37.9,10.9c0-2.2,0-4.3,0-6.4c10.7,0,18.5,0,29.2,0c0,2.2,0,4.2,0,6.4C56.4,10.9,48.6,10.9,37.9,10.9z"/>
	<g>
		<path class="st1" d="M36.8,35.9v13.7c-6.6,0-13.4,0.1-20.1,0.1c-1.5,0-3,0-4.6,0c-5.3,0-10.4-0.7-15.1-2c-2.7-0.8-5-1.5-6.8-3.4
			c-0.3-0.4-0.9-0.4-1.3-0.4c-0.2,0-0.4,0-0.6,0c-0.1,0-0.2,0-0.3,0c-0.1,0-0.2,0-0.3,0c-0.2,0-0.4,0-0.6,0c-0.3,0-0.6-0.2-0.7-0.3
			l0,0l0-0.1l-0.1-0.1c0,0,0,0,0-0.1c-0.2-0.5,0-0.9,0-0.9l0,0c0.1-0.2,0.4-0.4,0.7-0.5c0.2,0,0.4,0,0.6,0l0.5,0c0.2,0,0.4,0,0.7,0
			l0,0c0.4,0,1-0.1,1.3-0.4c1.8-1.9,4.2-2.7,6.8-3.4c4.7-1.3,9.8-2,15.1-2c1.5,0,3.1,0,4.6,0C23.4,35.8,30.2,35.9,36.8,35.9z"/>
	</g>
	<g>
		<path class="st1" d="M77.7,42.8c0,4.6-3.8,8.4-8.4,8.4h-1.9l-0.1,0.3c-1,4.7-5.1,8.1-9.9,8.1H46.1c-0.9,0-1.7-0.8-1.7-1.7
			c0-0.9,0.8-1.7,1.7-1.7h11.3c2.8,0,5.4-1.8,6.3-4.5l0.2-0.6H41.1V34.4h28.2C73.9,34.4,77.7,38.1,77.7,42.8z"/>
	</g>
</g>
</svg>
