<?xml version="1.0" encoding="utf-8"?>
<!-- Generator: Adobe Illustrator 19.0.0, SVG Export Plug-In . SVG Version: 6.00 Build 0)  -->
<svg version="1.1" id="Calque_1" xmlns="http://www.w3.org/2000/svg" xmlns:xlink="http://www.w3.org/1999/xlink" x="0px" y="0px"
	 width="23.2px" height="37px" viewBox="0.8 -9 23.2 37" style="enable-background:new 0.8 -9 23.2 37;" xml:space="preserve">
<style type="text/css">
	.st0{fill:#112B36;}
	.st1{fill:#96AAB8;}
</style>
<path class="st0" d="M15,10l-2.1,2.1l6.9,6.9l-6.9,6.9L15,28l9-9L15,10z"/>
<path class="st1" d="M15-9l-2.1,2.1L19.8,0l-6.9,6.9L15,9l9-9L15-9z"/>
<path class="st1" d="M11.9-6.9L9.8-9l-9,9l9,9l2.1-2.1L5,0L11.9-6.9z"/>
<path class="st0" d="M11.9,12.1L9.8,10l-9,9l9,9l2.1-2.1L5,19L11.9,12.1z"/>
</svg>
