<?xml version="1.0" encoding="utf-8"?>
<!-- Generator: Adobe Illustrator 19.0.0, SVG Export Plug-In . SVG Version: 6.00 Build 0)  -->
<svg version="1.1" id="Layer_1" xmlns="http://www.w3.org/2000/svg" xmlns:xlink="http://www.w3.org/1999/xlink" x="0px" y="0px"
	 width="68px" height="64px" viewBox="0.5 2.3 68 64" style="enable-background:new 0.5 2.3 68 64;" xml:space="preserve">
<style type="text/css">
	.st0{fill:#112B36;}
	.st1{fill:#96AAB8;}
	.st2{fill:#FFFFFF;}
</style>
<g>
	<g>
		<path class="st0" d="M8.1,37.1c-0.3-0.6-0.8-1.5-1.8-1.8c-0.2-0.1-0.5-0.1-0.7-0.1c-0.6,0-1.5,0.2-2.1,0.7C2.8,36.6,2.7,38,3,38.8
			c0.9,2.4,2.3,4.7,4.2,6.8c4.5,5.2,10.2,8.2,16.9,9.1c0.9,0.1,1.8,0.2,2.7,0.2c-0.6-1.7-1.1-3.6-1.3-5.5
			C18,48.8,11.2,44.1,8.1,37.1z"/>
		<path class="st0" d="M49.6,14.6C46.1,9,40.6,5,34.2,3.3c-2.5-0.7-5-1-7.4-1c-6.8,0-13,2.7-18.4,8.1c-1.8,1.8-3.3,3.8-4.5,6.2
			l-0.1-0.1c0,0,0,0,0,0c-0.2-0.2-1-0.8-2.3-1.9l0,0c-0.2-0.1-0.4-0.1-0.5-0.1c0,0-0.1,0-0.1,0c-0.2,0.1-0.3,0.3-0.3,0.5
			c0,0,0,0.1,0,0.2l0.3,2.2l1.1,7.8L2,26.3c0,0.4,0.3,0.7,0.6,0.9c0,0,0.1,0.1,0.1,0.1l0,0c0.1,0,0.2,0.1,0.3,0.1
			c0.3,0,0.6-0.1,0.8-0.2l2.3-1.8l5.5-4.3l1-0.8c0.2-0.2,0.3-0.5,0.1-0.8c-0.1-0.1-0.2-0.2-0.4-0.3l0,0C10.9,19,9.9,19,9.6,18.9
			c0,0-0.2,0-0.4,0c-0.1,0-0.2,0-0.4,0c0.6-1.1,1.3-2.1,2.1-3.1c4.3-5.3,9.9-7.9,16.5-7.9c0.6,0,1.2,0,1.8,0.1
			c8.6,0.6,16.2,7,18.4,15.5c0.5,0,1-0.1,1.6-0.1c1.4,0,2.7,0.1,4.1,0.4C52.5,20.5,51.3,17.4,49.6,14.6z"/>
		<path class="st0" d="M30,25.5l-0.6-10.5c0-1.2-1-2.3-2.3-2.3c-1.3,0-2.3,1-2.3,2.3l-0.6,10.5c-1.4,1-2.2,2.5-2.2,4.2
			c0,0.2,0,0.5,0.1,0.7L17,36.1c-0.4,0.4-0.7,1-0.7,1.6c0,0.6,0.2,1.2,0.6,1.6c0.4,0.5,1.1,0.7,1.7,0.7c0.6,0,1.1-0.2,1.5-0.6
			l5.9-4.8c0.4,0.1,0.8,0.1,1.1,0.1c0.7,0,1.4-0.1,2-0.4c1.6-0.7,2.8-2.1,3.1-3.9c0-0.3,0.1-0.5,0.1-0.8C32.2,28,31.4,26.4,30,25.5z
			 M27.1,31.9c-1.2,0-2.2-1-2.2-2.2c0-1.2,1-2.2,2.2-2.2c1.2,0,2.2,1,2.2,2.2C29.3,30.9,28.3,31.9,27.1,31.9z"/>
	</g>
</g>
<path class="st1" d="M68.5,46.9c0,10.7-8.7,19.4-19.5,19.4c-10.8,0-19.5-8.7-19.5-19.4c0-10.7,8.7-19.4,19.5-19.4
	C59.8,27.4,68.5,36.1,68.5,46.9z"/>
<path class="st2" d="M56.3,56.7c-0.2-1.1-0.7-1.4-1.8-1.1c-1.9,0.6-3.8,0.8-5.8,0.3c-2.6-0.6-4.4-2.6-4.8-5.1h0.7c2.9,0,5.9,0,8.8,0
	c1,0,1.4-0.4,1.4-1.5c0-1.2-0.3-1.5-1.4-1.5c-3.1,0-6.2,0-9.3,0h-0.9c0-0.3,0-0.7,0-1c0-0.3,0-0.6,0-0.9h0.9c3.1,0,6.2,0,9.3,0
	c1.1,0,1.4-0.3,1.4-1.5c0-1.1-0.3-1.5-1.4-1.5c-2.9,0-5.9,0-8.8,0h-0.7c0.3-2.5,2.2-4.5,4.8-5.1c2-0.5,3.9-0.3,5.8,0.3
	c1.1,0.3,1.5,0.1,1.8-1.1c0.2-0.7,0.3-1.5,0.5-2.2c0.1-0.6,0-1.1-0.6-1.3c-6-2.6-14.2-1.2-17.7,5.5c-0.5,1-0.8,2.2-1.2,3.3
	c-0.1,0.4-0.2,0.6-0.7,0.6c-0.2,0-0.3,0-0.5,0c-1.6,0-2.1,0.6-1.8,2.2c0.1,0.5,0.5,0.8,1.1,0.8c0.4,0,0.8,0,1.3,0v0.9v1
	c-0.5,0-0.9,0-1.3,0c-0.6,0-0.9,0.3-1.1,0.8c-0.3,1.6,0.1,2.2,1.8,2.2c0.2,0,0.3,0,0.5,0c0.5-0.1,0.6,0.2,0.7,0.6
	c0.3,1.1,0.6,2.3,1.2,3.3c3.5,6.7,11.6,8.1,17.7,5.5c0.6-0.2,0.7-0.7,0.6-1.3C56.6,58.2,56.4,57.4,56.3,56.7z"/>
</svg>
