<?xml version="1.0" encoding="utf-8"?>
<!-- Generator: Adobe Illustrator 19.0.0, SVG Export Plug-In . SVG Version: 6.00 Build 0)  -->
<svg version="1.1" id="Calque_1" xmlns="http://www.w3.org/2000/svg" xmlns:xlink="http://www.w3.org/1999/xlink" x="0px" y="0px"
	 width="18px" height="21px" viewBox="3 2 18 21" style="enable-background:new 3 2 18 21;" xml:space="preserve">
<style type="text/css">
	.st0{fill:#112B36;}
</style>
<path class="st0" d="M10,21c0,1.1,0.9,2,2,2c1.1,0,2-0.9,2-2H10z M18.9,16.8V11c0-3.3-2.3-6-5.3-6.7V3.6C13.6,2.7,12.9,2,12,2
	s-1.6,0.7-1.6,1.6v0.7C7.4,5,5.1,7.8,5.1,11v5.8L3,18.9V20h18v-1.1L18.9,16.8z M16,13h-3v3h-2v-3H8v-2h3V8h2v3h3V13z"/>
</svg>
