<?xml version="1.0" encoding="utf-8"?>
<!-- Generator: Adobe Illustrator 19.0.0, SVG Export Plug-In . SVG Version: 6.00 Build 0)  -->
<svg version="1.1" id="Layer_1" xmlns="http://www.w3.org/2000/svg" xmlns:xlink="http://www.w3.org/1999/xlink" x="0px" y="0px"
	 width="110px" height="102px" viewBox="-23 -41.3 110 102" style="enable-background:new -23 -41.3 110 102;" xml:space="preserve"
	>
<style type="text/css">
	.st0{fill:#96AAB8;}
	.st1{fill:#112B36;}
</style>
<g>
	<path class="st0" d="M35.4-41.3c-2.1,0-4.2,0.6-5.9,1.8c-4.7,3.3-5.9,9.7-2.6,14.4c1.4,2,3.4,3.4,5.7,4.1V5h5.9V-21
		c1-0.3,2-0.8,2.9-1.4c4.7-3.3,5.9-9.7,2.6-14.4C42-39.6,38.8-41.3,35.4-41.3z M41-29.9c-0.3,1.5-1.1,2.8-2.4,3.7
		c-1,0.7-2.1,1-3.3,1c-1.9,0-3.7-0.9-4.7-2.5c-1.8-2.6-1.2-6.2,1.4-8c1-0.7,2.1-1,3.3-1c1.9,0,3.7,0.9,4.7,2.5
		C41-32.9,41.3-31.4,41-29.9z"/>
	<path class="st0" d="M-2.4,1.5c-0.5-2.7-2-5.1-4.3-6.7C-8.4-6.4-10.5-7-12.6-7c-3.4,0-6.6,1.7-8.5,4.4c-3.3,4.7-2.1,11.2,2.6,14.5
		c1.7,1.2,3.8,1.9,5.9,1.9c3,0,5.9-1.3,7.8-3.5l22.7,10l2.4-5.4L-2.4,4.9C-2.2,3.8-2.2,2.6-2.4,1.5z M-7.9,6.6
		c-1.1,1.5-2.8,2.5-4.7,2.5l0,0c-1.2,0-2.3-0.4-3.3-1c-2.6-1.8-3.2-5.4-1.4-8c1.1-1.5,2.8-2.5,4.7-2.5c1.2,0,2.3,0.4,3.3,1
		C-8.1-0.5-7.3,0.8-7,2.3C-6.7,3.8-7,5.4-7.9,6.6z"/>
	<path class="st0" d="M87,8.8c-0.3-2.8-1.6-5.3-3.7-7c-1.9-1.5-4.2-2.4-6.6-2.4c-3.1,0-6,1.4-8,3.8C66.9,5.3,66,8,66.3,10.8
		c0.3,2.8,1.6,5.3,3.7,7c1.9,1.5,4.2,2.4,6.6,2.4c3.1,0,6-1.4,8-3.8C86.4,14.2,87.2,11.5,87,8.8z M81,13.4c-1.1,1.3-2.7,2.1-4.4,2.1
		c-1.3,0-2.6-0.5-3.6-1.3c-2.4-2-2.8-5.6-0.8-8.1C73.3,4.8,74.9,4,76.6,4c1.3,0,2.6,0.5,3.6,1.3c1.2,1,1.9,2.4,2.1,3.9
		C82.5,10.8,82,12.2,81,13.4z"/>
	<polygon class="st0" points="63.9,11 65.6,16.6 63,17.4 61.3,11.8 	"/>
	<polygon class="st0" points="52.9,20.6 54.4,20.1 54.4,20.1 55.5,19.8 55.5,19.8 55.5,19.8 53.7,14.2 51.1,15 	"/>
	<polygon class="st0" points="57.8,19.1 58.5,18.9 58.5,18.9 60.4,18.3 58.7,12.7 56.1,13.5 	"/>
	<g>
		<path class="st1" d="M26.3,29.6c0.8,1.6,1.9,3,3.4,4.4c1.5,1.4,3.5,2.1,5.6,2.1c0,0,0,0,0,0l0.3,0c2,0,4-0.8,5.5-2.2
			c1.5-1.4,2.7-2.8,3.4-4.4c1.6-3.3,2.4-6.6,2.4-9.9l0-0.4c0-0.4,0-0.8,0-1.2c-0.4-3.9-2.6-6.7-6.4-8.1c-1.6-0.6-3.3-0.9-5.2-0.9
			c-1.8,0-3.6,0.3-5.1,0.9c-3.8,1.4-6,4.2-6.4,8.1c0,0.4,0,0.8,0,1.2l0,0.4C23.9,23,24.7,26.4,26.3,29.6z M35.6,34.3
			C35.6,34.3,35.6,34.3,35.6,34.3L35.6,34.3L35.6,34.3z"/>
		<path class="st1" d="M56.9,44.4c-0.8-0.6-1.8-1.1-2.9-1.5c0,0-7.8-2.9-7.8-2.9c-1.6-0.6-3.3-0.8-4.8,0.3l-0.3,0.3
			c-0.5,0.4-0.8,0.9-1,1.3c-0.1,0.1-0.2,0.3-0.2,0.4l-4.4,6.2l-0.6-0.9c-1.5-2.1-3-4.3-4.6-6.4c-0.1-0.1-0.2-0.3-0.3-0.5
			c-0.6-0.7-1.2-1.1-1.9-1.3l-0.7-0.1l-2.5,0.6l-8,3c-1.2,0.4-2.2,0.9-3,1.5c-2.7,2.1-2.6,4.7-2.6,4.8l0,6.3c0.1,0.7,0.3,1.4,0.5,2
			c1,2.4,3.1,3.3,4.6,3.3h38c1.5,0,3.6-0.8,4.6-3.2c0.3-0.6,0.4-1.3,0.5-2.2l0-5.9C59.5,49.1,59.7,46.5,56.9,44.4z"/>
	</g>
</g>
</svg>
