<?xml version="1.0" encoding="utf-8"?>
<!-- Generator: Adobe Illustrator 19.0.0, SVG Export Plug-In . SVG Version: 6.00 Build 0)  -->
<svg version="1.1" id="Capa_1" xmlns="http://www.w3.org/2000/svg" xmlns:xlink="http://www.w3.org/1999/xlink" x="0px" y="0px"
	 width="32px" height="35.8px" viewBox="1246.8 272.4 32 35.8" style="enable-background:new 1246.8 272.4 32 35.8;"
	 xml:space="preserve">
<style type="text/css">
	.st0{fill:#3B5998;}
	.st1{fill:#FFFFFF;}
</style>
<path class="st0" d="M1277,300.6l-12.5,7.2c-1,0.6-2.5,0.6-3.5,0l-12.5-7.2c-1-0.6-1.7-1.9-1.7-3v-14.5c0-1.1,0.8-2.4,1.7-3
	l12.5-7.2c1-0.6,2.5-0.6,3.5,0l12.5,7.2c1,0.6,1.7,1.9,1.7,3v14.5C1278.8,298.7,1278,300.1,1277,300.6z"/>
<path class="st1" d="M1266.8,291h-2.9v10.5h-4.3V291h-2.1v-3.7h2.1v-2.4c0-1.7,0.8-4.4,4.4-4.4l3.2,0v3.6h-2.3c-0.4,0-0.9,0.2-0.9,1
	v2.2h3.2L1266.8,291z"/>
</svg>
