<?xml version="1.0" encoding="utf-8"?>
<!-- Generator: Adobe Illustrator 19.0.0, SVG Export Plug-In . SVG Version: 6.00 Build 0)  -->
<svg version="1.1" id="Layer_1" xmlns="http://www.w3.org/2000/svg" xmlns:xlink="http://www.w3.org/1999/xlink" x="0px" y="0px"
	 width="64px" height="68px" viewBox="2.4 0.9 64 68" style="enable-background:new 2.4 0.9 64 68;" xml:space="preserve">
<style type="text/css">
	.st0{fill:#96AAB8;}
	.st1{fill:#112B36;}
</style>
<g>
	<path class="st0" d="M66.4,27.8c-0.1-0.6-0.4-1.2-0.5-1.7c-0.4-1.4-0.8-2.8-1.3-4.1c-1.1-2.7-2.6-5.2-4.5-7.3
		c-5.3-6.2-12-9.5-19.7-10.8c0,0,0,0,0,0c-1.5-0.2-2.9-0.3-4.2-0.3v-1c0-0.5-0.2-1-0.6-1.3c-0.3-0.3-0.7-0.4-1.2-0.4
		c-0.4,0-0.7,0.1-1,0.3l0,0c-0.2,0.2-0.4,0.4-0.5,0.6l0,0c-0.1,0.2-0.1,0.4-0.2,0.6l0,0c0,0.1,0,0.2,0,0.3c0,0.3,0,0,0,0.8
		c-1.4,0.1-2.9,0.2-4.3,0.3c0,0,0,0,0,0C20.6,5.2,13.9,8.5,8.7,14.7c-1.9,2.2-3.4,4.7-4.5,7.3c-0.5,1.3-0.9,2.7-1.3,4.1
		c-0.1,0.4-0.4,1.1-0.5,1.7c-0.1,0.5,0,0.9,0.5,1.2c0.3,0.2,0.7,0.1,1,0c0.1-0.1,0.2-0.2,0.3-0.3c0.3-0.7,1-1.1,1.6-1.4
		c1.6-0.8,3.3-1,5.1-1.1c2.2,0,4.3,0.2,6.3,1.2c0.4,0.2,0.8,0.4,0.8,0.9c0,0.5,0.4,0.8,0.9,0.8c0.5,0,0.9-0.2,1-0.7
		c0.1-0.6,0.6-0.9,1-1.1c0.3-0.2,0.6-0.3,1-0.4c0,0,0,0,0,0c0.3-0.1,0.6-0.2,0.8-0.3c0.7-0.2,1.4-0.3,2.2-0.4
		c0.5-0.1,1.1-0.1,1.6-0.1c0.1,0,0.1,0,0.2,0c2.1,0,4.1,0.2,6,1.1c0,0,0.1,0,0.1,0c0.3,0.2,0.6,0.3,0.8,0.8c0.1,0.3,0,0.5,0.2,0.7
		c0.3,0.4,0.9,0.4,1.2,0c0.2-0.3,0.1-0.6,0.3-0.9c0.1-0.3,0.4-0.4,0.7-0.6c0.1,0,0.1-0.1,0.2-0.1c1.9-0.9,3.9-1.1,6-1.1
		c0.1,0,0.1,0,0.2,0c1.3,0,2.6,0.1,3.8,0.5c0.6,0.2,1.2,0.4,1.8,0.7c0.5,0.2,0.9,0.5,1,1.1c0.1,0.5,0.5,0.7,1,0.7
		c0.5,0,0.9-0.3,0.9-0.8c0-0.6,0.4-0.8,0.8-0.9c2-0.9,4.1-1.2,6.3-1.2c1.8,0,3.5,0.3,5.1,1.1c0.6,0.3,1.3,0.6,1.6,1.4
		c0.1,0.1,0.2,0.3,0.3,0.3c0.3,0.2,0.7,0.2,1,0C66.3,28.7,66.4,28.3,66.4,27.8z"/>
	<g>
		<g>
			<path class="st1" d="M36,45.8c1.5,0.4,3.7-0.1,5.1-0.9c0.1,0.1,0.1,0.1,0.2,0.2c0.1,0.1,0.3,0.2,0.4,0.3c0.2,0.1,0.4,0.2,0.7,0.3
				c0,0,0,0,0,0c0.2,0.1,0.4,0.1,0.6,0.2c0.2,0,0.4,0,0.5,0c0.2,0,0.4,0,0.5,0c0.2,0,0.4-0.1,0.6-0.2c0,0,0,0,0.1,0
				c0.3-0.1,0.5-0.2,0.7-0.3c0.1-0.1,0.3-0.2,0.4-0.3c0.1-0.1,0.2-0.1,0.3-0.2c1.9,0.9,4.3,1.3,6.2,0.5c0.2-0.1,0.2-0.4,0-0.5
				c-0.1-0.1-0.1-0.1-0.2-0.2c-0.4-0.3-0.7-0.6-1.1-0.9c-1.1-1.1-1.7-2.5-1.9-4c0-0.3-0.1-0.5-0.1-0.8c0-0.2,0-0.4,0-0.6
				c-0.1-0.8-0.2-1.5-0.3-2.2c0-0.1,0-0.2-0.1-0.3c-0.1-0.6-0.4-1.2-0.9-1.7c-2.1-1.9-5.2-2.2-7.6-0.7c-0.8,0.5-1.3,1.1-1.7,1.8
				c-0.1,0.2-0.2,0.5-0.2,0.7c-0.2,0.8-0.3,1.6-0.3,2.4c0,0.2,0,0.3,0,0.5c0,0.2,0,0.5,0,0.7c0,0.2,0,0.4-0.1,0.7
				c-0.3,1.4-0.9,2.6-1.9,3.5c-0.3,0.3-0.7,0.7-1.1,1C34,45.3,35.5,45.7,36,45.8z"/>
			<path class="st1" d="M19.5,39.8c0,0.3,0.1,0.5,0.1,0.8c0.1,0.6,0.4,1.2,0.9,1.5c0.1,0.1,0.2,0.2,0.2,0.4c0.3,1.4,1,2.4,2.1,3.2
				c0.1,0.1,0.3,0.2,0.4,0.3c0.2,0.1,0.4,0.2,0.7,0.3c0,0,0,0,0.1,0c0.2,0.1,0.4,0.1,0.6,0.2c0.2,0,0.4,0,0.5,0c0.2,0,0.4,0,0.5,0
				c0.2,0,0.4-0.1,0.6-0.2c0,0,0,0,0.1,0c0.3-0.1,0.5-0.2,0.7-0.3c0.1-0.1,0.3-0.2,0.4-0.3c0.6-0.4,1-0.9,1.4-1.5
				c0.2-0.3,0.3-0.6,0.5-0.9c0.1-0.3,0.1-0.7,0.3-0.9c0.2-0.2,0.4-0.4,0.6-0.5c0.3-0.3,0.5-0.7,0.5-1.2c0-0.3,0.1-0.5,0.1-0.8
				c0-0.1,0-0.3,0-0.4c0,0,0,0,0-0.1c0-0.3-0.1-0.7-0.5-0.8c-0.2,0-0.3,0-0.4-0.1c0-0.1,0-0.4,0-0.5c0-0.3,0-0.5,0.1-0.8
				c0.1-0.5,0.2-0.9,0.2-1.4c0.1-1.5-0.7-2.7-2-3.3c-0.2-0.1-0.3-0.1-0.5-0.2c-0.9-0.3-1.8-0.5-2.7-0.5c-0.2,0-0.4,0-0.6,0
				c-0.6,0-1.3,0.1-1.9,0.4c-0.1,0-0.1,0.1-0.2,0.1c-0.2,0.1-0.4,0.3-0.5,0.5c-0.1,0.2-0.2,0.3-0.4,0.5c-0.2,0.2-0.4,0.3-0.6,0.4
				c-0.2,0.1-0.4,0.2-0.5,0.4c-0.2,0.4-0.3,0.8-0.3,1.3c0,0.5,0,1.1,0,1.6c0,0.2,0,0.4,0.1,0.6c0.1,0.3,0.1,0.6,0.1,0.9
				c0,0.1,0,0.1-0.1,0.2c0,0,0,0-0.1,0c-0.1,0-0.2,0-0.3,0c-0.3,0.1-0.5,0.5-0.5,0.8c0,0,0,0,0,0.1C19.5,39.6,19.5,39.7,19.5,39.8z"
				/>
			<path class="st1" d="M54.3,52.7c-0.3-2.5-2.8-4.4-5.2-4.4c0,0,0,0,0,0c-0.2,0-0.3,0.1-0.4,0.2c-1.5,1.2-3.1,1.9-4.8,1.9
				c-0.2,0-0.3,0-0.5,0c-0.1,0-0.2,0-0.3,0c-1.6-0.1-3.2-0.7-4.6-1.9c-0.1-0.1-0.3-0.2-0.5-0.2c0,0-0.1,0-0.1,0
				c-0.9,0-1.7,0.3-2.4,0.7c-0.3,0.2-0.7,0.3-1,0.2c-0.3,0-0.6-0.1-0.9-0.2c-0.8-0.4-1.7-0.7-2.6-0.7c0,0,0,0,0,0
				c-0.2,0-0.3,0.1-0.5,0.2c-1.5,1.2-3.1,1.9-4.8,1.9c-0.2,0-0.3,0-0.5,0c-0.1,0-0.2,0-0.3,0c-1.6-0.1-3.2-0.7-4.6-1.9
				c-0.1-0.1-0.3-0.2-0.5-0.2c0,0-0.1,0-0.1,0c-2.4,0-4.8,2-5.1,4.4c-0.5,3.9,1.4,7.7,3.8,10.7c1,1.2,2.2,2.3,3.6,3.3
				c0.9,0.4,1.8,0.9,2.6,1.3c0.7,0.4,1.2,0.7,1.2,0.7c0-0.1,0-0.2,0-0.3c0.1-0.6,0.2-1.2,0.3-1.7c0.4-1.3,1.1-2.4,2.5-2.7
				c0.3-0.1,0.6-0.1,0.8,0.2c0,0,0,0,0,0c1.1,1,2.4,1.5,3.8,1.6c0.4,0,0.7,0,1,0c1.3-0.1,2.5-0.6,3.6-1.5c0.2-0.2,0.5-0.2,0.8-0.2
				c0.2,0,0.4,0.1,0.6,0.2c0.8,0.3,1.4,0.9,1.7,1.7c0.3,0.9,0.5,1.9,0.7,2.9c0,0.1,0.2,0,0.5-0.1c0,0,0,0,0,0
				c0.3-0.1,0.5-0.1,0.8-0.2c0.4-0.1,0.8-0.3,1.2-0.4c0.9-0.4,1.8-0.8,2.6-1.3c1.5-1,2.7-2.1,3.6-3.3c1.9-2.3,3.7-5.5,4-8.6
				c0-0.2,0-0.5,0-0.7C54.4,53.6,54.4,53.2,54.3,52.7z M31.1,62.8c-0.6-0.6-1-1.4-1.2-2.2c0-0.2-0.1-0.3-0.3-0.3
				c-0.3-0.1-0.5-0.3-0.5-0.6c-0.1-0.5-0.1-1-0.1-1.5c0,0,0,0,0,0c0-0.2,0.1-0.5,0.4-0.6c0.1,0,0.2,0,0.3,0c0,0,0,0,0,0
				c0.1,0,0.1-0.1,0.1-0.1c0-0.2,0-0.5-0.1-0.7c0-0.1-0.1-0.3-0.1-0.4c0-0.4-0.1-0.8,0-1.2c0-0.3,0.1-0.7,0.2-1
				c0.1-0.1,0.2-0.2,0.4-0.3c0.2-0.1,0.3-0.2,0.5-0.3c0.2-0.1,0.2-0.2,0.3-0.4c0.1-0.2,0.3-0.3,0.4-0.4c0,0,0.1-0.1,0.1-0.1
				c0.5-0.2,1-0.3,1.6-0.3c0.2,0,0.3,0,0.5,0c0.2,0,0.5,0,0.7,0c0.5,0.1,1,0.2,1.5,0.3c0.1,0,0.3,0.1,0.4,0.1
				c1.1,0.5,1.7,1.4,1.7,2.6c0,0.4-0.1,0.7-0.2,1.1c-0.1,0.2-0.1,0.4-0.1,0.6c0,0.1-0.1,0.3,0,0.3c0.1,0.1,0.2,0.1,0.3,0.1
				c0.3,0.1,0.4,0.4,0.4,0.6c0,0,0,0,0,0c0,0.6,0.1,1.2-0.2,1.8c-0.1,0.1-0.2,0.3-0.4,0.3c-0.2,0.1-0.3,0.2-0.3,0.4
				c-0.3,0.9-0.7,1.7-1.4,2.3c-0.5,0.5-1.1,0.8-1.7,0.9C33.2,64.2,32,63.8,31.1,62.8z"/>
		</g>
	</g>
</g>
</svg>
