<?xml version="1.0" encoding="utf-8"?>
<!-- Generator: Adobe Illustrator 19.0.0, SVG Export Plug-In . SVG Version: 6.00 Build 0)  -->
<svg version="1.1" id="Layer_1" xmlns="http://www.w3.org/2000/svg" xmlns:xlink="http://www.w3.org/1999/xlink" x="0px" y="0px"
	 width="282px" height="196px" viewBox="-109 10.3 282 196" style="enable-background:new -109 10.3 282 196;" xml:space="preserve"
	>
<style type="text/css">
	.st0{fill:#112B36;}
</style>
<g>
	<path class="st0" d="M172.3,88.6l-35.7-68.9c-1.6-3-5.3-4.2-8.3-2.6l-23.2,12c-2.6,1.3-3.8,4.2-3.1,6.9c-1.1,0.2-2.1,0.6-2.9,0.9
		c-0.8,0.3-1.7,0.6-2.8,0.8c-0.1,0-0.2,0-0.3,0h-0.1c-1.2,0-2.8-0.5-3.4-0.7c-2.8-0.9-5.7-2.4-8.9-4.3c-1.5-0.9-3.1-1.8-4.8-2.6
		c-5.9-3-12.1-4.4-18.3-4.2c-6.1,0.2-12.1,2-18.4,5.4l-0.6,0.3l-0.7,0.6c-3.5-2.4-8.2-5.6-8.5-5.7c-6.4-3.5-15.1-7.1-21-7.7
		C4.5,18.2-2.3,19.3-9,22.2c-1.9,0.8-3.7,1.7-5.6,2.6c-3.5,1.7-6.8,3.3-9.9,4.1c-0.6,0.1-2.2,0.5-3.5,0.5l-0.8,0
		c-1.2-0.3-2.2-0.7-3.1-1.2c-0.9-0.4-2-0.9-3.3-1.2c-0.5-0.9-1.2-1.7-2.1-2.3l-22.1-13.5c-2.9-1.8-6.7-0.9-8.4,2l-40.2,65.6
		c-1.8,2.9-0.9,6.7,2,8.4l22.1,13.5c1.2,0.7,2.5,1,3.9,0.8c6,11.3,16.4,22.9,25.8,30.2c-0.2,0.9-0.3,1.9-0.3,2.9
		c0,6.7,4.1,12.5,10,14.9c-1.9,4.6-1.2,10.1,2.2,14.2c2.6,3.2,6.5,5,10.6,5c0,3.2,1.1,6.3,3.3,8.9c2.7,3.1,6.5,5,10.7,5
		c0.7,0,1.5-0.1,2.2-0.2c0.4,1.6,1.2,3.1,2.3,4.4c2.5,3.2,6.3,5,10.3,5c2.9,0,5.8-1,8.1-2.8l1.2-1c4.9,4.1,15,12.7,16.5,13.8
		c4.2,3,8.5,4.4,13,4.4c5.9,0,11.5-2.7,16-7.8c0.7-0.7,1.3-1.6,2-2.5c6.2,2.9,11.7,3.6,17.2,2.2c5.9-1.5,10.4-5.3,13.5-11.3
		c3.3,0.8,8,1.6,8.4,1.6c3.6,0.2,7.2-0.4,10.3-1.7c3.7-1.6,6.9-4.4,8.9-7.8l1.1-1.2l-0.1-0.4c0.4-0.7,0.8-1.3,1.1-2
		c3.3,0.8,8,1.6,8.4,1.6c0.5,0,0.9,0,1.4,0c3.2,0,6.2-0.6,8.9-1.7c8.8-3.7,13.8-14.3,11-23.2c-0.7-2-1.7-3.9-3.1-5.9
		c-1.7-2.4-3.7-4.3-6-6.6l-12.5-14.2c6.8-5.1,12.1-11.2,16.2-18.4c1.8,2.4,5.1,3.3,7.8,1.9l23.2-12
		C172.7,95.3,173.9,91.6,172.3,88.6z M48.4,42.4C52.9,40,57,38.8,61,38.6c4-0.2,8,0.8,12,2.8c1.4,0.7,2.9,1.6,4.4,2.4
		c3.6,2,7.3,4.1,11.4,5.3c2,0.6,4.8,1.3,7.7,1.2c0.8,0,1.5-0.1,2.3-0.3c2.1-0.4,3.6-1,4.7-1.4c0.1,0,0.2-0.1,0.3-0.1
		c0.6,0.8,1.5,2.1,1.9,2.7c3.4,5.2,6.3,10.8,9.2,16.2l1.2,2.2c1.7,3.2,3.4,6.5,5.1,9.7l0.1,0.2c0.8,1.5,1.6,3.1,2.4,4.6
		c0.3,0.6,0.8,1.4,1.9,3.1c1,1.6,3.8,6,4.7,8c-3.5,8.4-8.9,15.2-16.4,20.7C102.3,101.8,87.3,86.3,68,68.8
		c-6.2-6.2-11.9-9.2-17.6-8.9c-2.6,0.1-5.1,0.9-7.5,2.3c-0.7,0.5-24.9,15-25.2,15.1c-1.9,1.2-4.4,2.5-6.3,2.6h-0.2
		c-0.6,0-1-0.1-1.4-0.4c-0.3-0.2-0.6-0.5-1-0.9c-0.9-1.1-1.2-2.2-1.1-3.4c0.2-1.6,1.4-3.3,3.1-4.6L48.4,42.4z M-38.9,142.6
		c-4.2-0.2-7.6-3.7-7.6-7.9c0-4.4,3.6-7.9,8-7.9c4.4,0,8.1,3.6,8.1,7.9c0,0.3,0,0.5,0,0.8v0c-0.4,4-3.8,7.1-8,7.1
		C-38.6,142.6-38.7,142.6-38.9,142.6z M-28,159.1C-28,159.1-28,159.2-28,159.1c-2.4,2.1-6.2,1.7-8.1-0.6c-2-2.3-1.7-5.9,0.5-7.9
		c0.1,0,0.1-0.1,0.2-0.1l12.3-10.4l7.3-6.1c1.3-1.1,2.7-1.3,3.7-1.3c1.7,0,3.3,0.7,4.4,2.1c1,1.2,1.5,2.6,1.3,4.2
		c-0.1,1.2-0.5,2.2-1.2,3.1l-0.1,0L-26.8,158C-27.2,158.4-27.6,158.7-28,159.1z M-14.2,173c-0.3,0.2-0.6,0.5-1,0.6
		c-2.3,1.2-5.4,0.7-7.1-1.3c-1.8-2.2-1.8-5.3,0-7.4l19.1-16c0.4-0.3,0.8-0.7,1.1-1.1l0.1-0.1c1.3-1.1,2.7-1.4,3.7-1.4
		c1.7,0,3.3,0.7,4.4,2c1,1.2,1.5,2.7,1.3,4.2c-0.1,1.2-0.5,2.2-1.3,3.1c-0.2,0.3-0.5,0.5-0.7,0.8L-14.2,173z M15.1,168.8
		c-0.1,1.3-0.8,2.5-1.8,3.3L0,182.6c-2.1,1.6-5.3,1.2-6.9-0.8c-0.7-0.9-1.1-2.1-1-3.2l18.1-15.2h0.1c1.5,0,2.9,0.7,3.9,1.9
		C14.9,166.2,15.2,167.5,15.1,168.8z M126.6,150.3c1.5,1.5,3.1,3,4.1,4.7c1.5,2.4,1.3,4.4-0.4,6.4c-1.6,1.8-3.9,2.8-6.1,2.4
		c-3.9-0.7-7.5-2.2-10-4.3c-1.8-1.5-3.6-3.1-5.2-4.5c-1.1-1.3-2.4-2.5-3.9-3.9l-27.8-26.4c-1.1-1-2.3-2.2-4.2-2.8
		c-2.5-0.9-5.6-0.1-7.1,2c-1.3,1.7-1.5,4.3-0.5,6.5c0.7,1.6,1.8,2.7,2.8,3.6l13.9,13.5c1.2,1.2,2.5,2.5,4.1,4l10.4,10.1
		c1.6,1.5,3.1,3,4.2,4.8c1.6,2.7,0.9,4.5,0.1,5.6c-0.1,0.3-0.4,0.6-0.6,0.8c-1.6,1.8-3.8,2.8-6.1,2.4c-3.8-0.6-7.5-2.2-10-4.3
		c-5.1-4.3-9.9-8.9-15.7-14.4c-2.8-2.7-5.1-4.9-7.5-7.1c-0.6-0.6-1.5-1.4-2.3-2c-3-2.3-6.4-2.6-9.4,0.1c-1.8,2.1-1.9,6.4,0.9,9.3
		c3.2,3.4,6.6,6.6,9.9,9.6c2.1,2,4.3,4,6.4,6c1.9,1.9,3.8,4.2,5.7,6.7c0.1,0.2,0.3,0.4,0.4,0.7c0.2,0.4,0.6,1.2-1,2.9
		c-3.8,4-9.7,3.7-14.8-0.6c-2.2-1.8-4.3-3.8-5.9-5.3l-3.2-3c-1.4-1.3-2.8-2.6-4.2-4l-0.5-0.4c-1.2-1.1-3-2.8-5.4-2.8
		c-1.2,0-2.9,0.4-4.6,2.3c-4.3,4.8-0.1,8.8,1.2,10.1l0.4,0.4c1.2,1.2,2.4,2.4,3.5,3.5c1.3,1.2,2.5,2.4,3.8,3.7
		c0.6,0.6,0.9,1.2,0.9,1.5c0,0.3-0.4,1-1.3,1.9c-3.2,2.9-6,3.7-8.5,2.2c-1.6-0.9-10.4-8.2-16.3-13l1.4-1.1c2.8-2.2,4.5-5.3,4.9-8.8
		c0.4-3.5-0.6-6.9-2.7-9.6c-1.4-1.8-3.3-3.2-5.4-4c0.2-0.9,0.4-1.8,0.5-2.7c0.3-3.7-0.8-7.3-3.2-10.2c-2.6-3.1-6.5-4.9-10.6-4.9
		c0-3.3-1.2-6.4-3.3-8.9c-2.7-3.1-6.5-4.9-10.7-4.9c-3.3,0-6.4,1.2-8.9,3.3l-2,1.7c-2.2-6.3-8.2-10.8-15.3-10.8
		c-2.8,0-5.5,0.7-7.8,2c-9-7.1-19.9-19.5-23.4-29.1c4.4-8.7,25.1-41.9,29.5-47.9c1.1-1.5,1.8-2.4,2.3-2.9c0.1,0,0.2,0.1,0.3,0.1
		c1.1,0.5,2.8,1.2,5.1,1.8c0.8,0.2,1.6,0.4,2.5,0.5c3.2,0.3,6.3-0.3,8.5-0.9c4.7-1.1,8.7-3,13-5.1c1.6-0.8,3.3-1.6,4.9-2.3
		C1,33,5.5,32.2,9.9,32.7c3.4,0.3,6.8,1.3,10.3,3.1c0.2,0.1,5,3.3,8.4,5.6l-25.3,19C1.6,61.8,0,63.3-1.2,65c-2,2.6-3.2,5.6-3.6,8.7
		C-5.4,78.2-4,82.8-1,86.6c1.2,1.4,2.5,2.7,4,3.6c0,0,0.1,0,0.1,0.1c2.6,1.7,5.6,2.5,8.9,2.3c4.7-0.2,8.9-2.3,12.3-4.4
		c0.2-0.1,23.3-14,25.3-15.2h0c0.6-0.4,1.1-0.5,1.4-0.5c0.4,0,1.5,0.1,3.4,1.3c0.9,0.8,1.8,1.7,2.7,2.6l0.1,0.1
		c21,19,37.3,35.7,49.7,51.1l0.3,0.3l3.9,5l0.1-0.1L126.6,150.3z"/>
</g>
</svg>
