<?xml version="1.0" encoding="utf-8"?>
<!-- Generator: Adobe Illustrator 19.0.0, SVG Export Plug-In . SVG Version: 6.00 Build 0)  -->
<svg version="1.1" id="Calque_1" xmlns="http://www.w3.org/2000/svg" xmlns:xlink="http://www.w3.org/1999/xlink" x="0px" y="0px"
	 width="20.9px" height="19px" viewBox="1.3 2.7 20.9 19" style="enable-background:new 1.3 2.7 20.9 19;" xml:space="preserve">
<style type="text/css">
	.st0{fill:#96AAB8;}
</style>
<path class="st0" d="M2.5,19.7l1.3,0.6v-9L1.4,17C1,18.1,1.5,19.2,2.5,19.7z M22,16l-5-12c-0.3-0.8-1-1.2-1.8-1.2
	c-0.3,0-0.5,0-0.8,0.1L7.1,6C6.4,6.3,5.9,7,5.9,7.7c0,0.3,0,0.5,0.2,0.8l5,12c0.3,0.8,1,1.2,1.8,1.2c0.3,0,0.5,0,0.8-0.2l7.4-3
	C22,18.1,22.4,17,22,16z M7.9,8.7c-0.5,0-1-0.5-1-1s0.5-1,1-1c0.6,0,1,0.5,1,1S8.4,8.7,7.9,8.7z M5.9,19.7c0,1.1,0.9,2,2,2h1.5
	l-3.5-8.3V19.7z"/>
</svg>
