<?xml version="1.0" encoding="utf-8"?>
<!-- Generator: Adobe Illustrator 19.0.0, SVG Export Plug-In . SVG Version: 6.00 Build 0)  -->
<svg version="1.1" id="Calque_1" xmlns="http://www.w3.org/2000/svg" xmlns:xlink="http://www.w3.org/1999/xlink" x="0px" y="0px"
	 width="12px" height="15.8px" viewBox="3 0.7 12 15.8" style="enable-background:new 3 0.7 12 15.8;" xml:space="preserve">
<style type="text/css">
	.st0{fill:#96AAB8;}
</style>
<path class="st0" d="M9,12.7c0.8,0,1.5-0.7,1.5-1.5S9.8,9.7,9,9.7s-1.5,0.7-1.5,1.5S8.2,12.7,9,12.7z M13.5,6h-0.8V4.5
	c0-2.1-1.7-3.8-3.8-3.8c-2.1,0-3.8,1.7-3.8,3.8V6H4.5C3.7,6,3,6.7,3,7.5V15c0,0.8,0.7,1.5,1.5,1.5h9c0.8,0,1.5-0.7,1.5-1.5V7.5
	C15,6.7,14.3,6,13.5,6z M6.7,4.5c0-1.3,1-2.3,2.3-2.3c1.3,0,2.3,1,2.3,2.3V6H6.7V4.5z M13.5,15h-9V7.5h9V15z"/>
</svg>
