<?xml version="1.0" encoding="utf-8"?>
<!-- Generator: Adobe Illustrator 19.0.0, SVG Export Plug-In . SVG Version: 6.00 Build 0)  -->
<svg version="1.1" id="Layer_1" xmlns="http://www.w3.org/2000/svg" xmlns:xlink="http://www.w3.org/1999/xlink" x="0px" y="0px"
	 width="70px" height="64px" viewBox="-0.1 2.3 70 64" style="enable-background:new -0.1 2.3 70 64;" xml:space="preserve">
<style type="text/css">
	.st0{fill:#96AAB8;}
</style>
<g>
	<path class="st0" d="M68.1,20.1c-2.6-3.3-5.3-6.6-7.9-9.8l-0.5-0.6c-1.1-1.4-2.2-2.7-3.3-4.1c-1.8-2.2-4.1-3.3-7.1-3.3
		c-1.7,0-3.6,0-5.9,0l-7.9,0h-0.6l-8.7,0c-2.3,0-4.3,0-6.1,0c-2.7,0-4.8,1-6.4,3c-4.2,5.1-8,9.8-11.7,14.4c-2.8,3.5-2.8,7.4,0.1,11
		c2.2,2.7,4.5,5.5,6.7,8.2l8,9.8c3.9,4.8,7.8,9.7,11.8,14.5c1.7,2,3.8,3,6.4,3h0H35c2.7,0,4.8-1.1,6.7-3.5c2.8-3.5,5.7-7.1,8.6-10.6
		l8-9.8c3.2-3.9,6.4-7.9,9.6-11.9C70.5,27.2,70.6,23.3,68.1,20.1z M5.8,22.8C5.8,22.8,5.8,22.8,5.8,22.8c2.9-3.6,5.9-7.3,9-11.1
		l-0.1,11.1H5.8z M19.1,19.6l0.1-12.2c0.3-0.1,0.6-0.1,1-0.1c1.8,0,3.7,0,6,0l4.3,0L19.1,19.6z M39.3,7.2l4,0c2.3,0,4.2,0,6,0
		c0.5,0,1,0.1,1.4,0.2l0.1,12.2L39.3,7.2z M49.3,27.1L34.9,58.8L20.5,27.1H49.3z M21.9,22.8l13-14.1l13,14.1H21.9z M54,27.1h10.3
		c-0.1,0.1-0.2,0.3-0.3,0.4c-3.1,3.9-6.4,7.9-9.5,11.7l-8.2,10.1c-1.8,2.3-3.7,4.5-5.6,6.9L54,27.1z M55,11.7l1.4,1.7
		c2.5,3.1,5.1,6.3,7.6,9.4h-8.9L55,11.7z M29,56.1c-2.8-3.5-5.7-7-8.4-10.4L12.7,36c-2.2-2.7-4.5-5.6-6.8-8.4
		c-0.2-0.2-0.3-0.4-0.4-0.6h10.3L29,56.1z"/>
</g>
</svg>
