<?xml version="1.0" encoding="utf-8"?>
<!-- Generator: Adobe Illustrator 19.0.0, SVG Export Plug-In . SVG Version: 6.00 Build 0)  -->
<svg version="1.1" id="Calque_1" xmlns="http://www.w3.org/2000/svg" xmlns:xlink="http://www.w3.org/1999/xlink" x="0px" y="0px"
	 width="10.5px" height="15px" viewBox="3.7 1.5 10.5 15" style="enable-background:new 3.7 1.5 10.5 15;" xml:space="preserve">
<style type="text/css">
	.st0{fill:#FFFFFF;}
</style>
<path class="st0" d="M9,1.5c-2.9,0-5.3,2.4-5.3,5.2c0,3.9,5.3,9.8,5.3,9.8s5.3-5.8,5.3-9.8C14.2,3.9,11.9,1.5,9,1.5z M9,3
	c0.8,0,1.5,0.7,1.5,1.5C10.5,5.3,9.8,6,9,6S7.5,5.3,7.5,4.5C7.5,3.7,8.2,3,9,3z M9,10.5c-1.3,0-2.4-0.6-3-1.6c0-1,2-1.5,3-1.5
	c1,0,3,0.5,3,1.5C11.4,9.9,10.3,10.5,9,10.5z"/>
</svg>
