<?xml version="1.0" encoding="utf-8"?>
<!-- Generator: Adobe Illustrator 19.0.0, SVG Export Plug-In . SVG Version: 6.00 Build 0)  -->
<svg version="1.1" id="Calque_1" xmlns="http://www.w3.org/2000/svg" xmlns:xlink="http://www.w3.org/1999/xlink" x="0px" y="0px"
	 width="20px" height="18px" viewBox="2 3 20 18" style="enable-background:new 2 3 20 18;" xml:space="preserve">
<style type="text/css">
	.st0{fill:#96AAB8;}
</style>
<path class="st0" d="M19,8H5c-1.7,0-3,1.3-3,3v6h4v4h12v-4h4v-6C22,9.3,20.7,8,19,8z M16,19H8v-5h8V19z M19,12c-0.5,0-1-0.5-1-1
	s0.5-1,1-1c0.5,0,1,0.5,1,1S19.5,12,19,12z M18,3H6v4h12V3z"/>
</svg>
