<?xml version="1.0" encoding="utf-8"?>
<!-- Generator: Adobe Illustrator 19.0.0, SVG Export Plug-In . SVG Version: 6.00 Build 0)  -->
<svg version="1.1" id="Layer_1" xmlns="http://www.w3.org/2000/svg" xmlns:xlink="http://www.w3.org/1999/xlink" x="0px" y="0px"
	 width="110px" height="99px" viewBox="-23 -39.2 110 99" style="enable-background:new -23 -39.2 110 99;" xml:space="preserve">
<style type="text/css">
	.st0{fill:#96AAB8;}
	.st1{fill:#112B36;}
</style>
<g>
	<path class="st0" d="M86.8-12c-4.1,11.4-8.2,22.8-12.3,34.2c-0.3,0.8-0.8,1.2-1.6,1.2c-4.9,0.5-9.6,0-14-2.2
		c-2.1-1-3.9-2.4-5.8-3.7c-2-1.4-4.1-2.6-6.4-3.6c-2.5-1-5-1.2-7.7-0.9c-1.8,0.2-3.5,0.6-5.1,1.1l0,0c-0.9,0.3-1.7,0.6-2.6,0.9
		l-2.3,0.8l-1,0.3l-0.1,0c0-0.6,0-1.1,0-1.7c0-0.4,0-0.8,0-1.2l1.1-0.4l0.8-0.3l0.1-34.7l-2,0.1v-3.5c1.5-0.4,4.2-0.9,5.8-1.3
		c3.9-1,8-1.1,12-0.7c3.8,0.3,7.4,1.2,10.9,2.9c2.7,1.3,5,3.2,7.1,5.3c0.7,0.8,1.5,1.5,2.2,2.2c3.2,3.4,7.1,4.7,11.6,4.5
		c2.6-0.1,5.2-0.6,7.7-1.4c0.6-0.2,1.2-0.3,1.7,0.2C87.1-13.3,87.1-12.7,86.8-12z"/>
	<path class="st1" d="M25.6,46.9c0-2.6,0-12.4,0-14.9l0-1.8c0-1.9,0-3.8,0-5.7c0-2.1,0-4.3,0-6.4c0-1.6,0-3.1,0-4.7
		c0-1.5,0-3.1,0-4.7c0-2,0-4,0-6.1c0-2,0-4,0-6c0-1.6,0-3.2,0-4.8c0-1.5,0.1-20.1,0-22.1c0-1.7-1.3-3.1-2.9-3.2c-0.1,0-0.1,0-0.2,0
		c-1.8,0-3.2,1.4-3.2,3.2c0,0.6,0,1.1,0,1.6c0,0.3,0,0.7,0,1v0.6c0,3.8,0,10.9,0,12.4c0,1.7,0,3.4,0,5c0,1.8,0,3.5,0,5.3
		c0,2.2,0,4.3,0,6.5c0,2.1,0,4.1,0,6.2c0,1.8,0,3.7,0,5.5c0,4.1,0,8.2,0,12.2c0,1.4,0,2.8,0,4.1c0,1.8,0,3.6,0,5.5
		c0,1.4,0,10,0,11.3c-3.4,0.8-5.9,2.7-5.9,4.9c0,2.9,4.2,5.3,9.3,5.3s9.3-2.4,9.3-5.3C32,49.5,29.3,47.6,25.6,46.9z"/>
	<path class="st1" d="M5.1-28.9C5-23.4,0.1-18.6-5.3-18.7c-5.5-0.1-10.3-5-10.2-10.4c0.1-5.6,4.8-10.1,10.4-10.1
		C0.5-39.2,5.1-34.4,5.1-28.9z"/>
	<path class="st1" d="M16.4,5c-0.6-1.3-0.8-2.9-0.9-4.4c-0.1-0.8-0.1-1.6-0.3-2.4c-0.3-1.7-0.6-3.5-0.9-5.3l-0.5-2.7
		c-0.4-2-1.5-3.4-3.4-4c-1-0.3-2.1-0.6-2.9-0.9c-0.2-0.1-0.4-0.1-0.6-0.2C6.7-15,6.5-15,6.3-15.1c-0.2-0.1-0.5-0.2-0.7-0.2
		c-0.2-0.1-0.5-0.2-0.7-0.2c-0.2-0.1-0.4-0.1-0.5-0.1c-1.1-0.4-2.1-0.8-2.5-0.8c-0.1,0-0.1,0-0.2,0c-0.5,0.1-0.8,0.6-0.9,1
		c0,0.1-0.6,1.9-1.3,4.1l-0.2,0.6c-0.6,2-1.4,4.3-1.8,5.7c-0.1-0.7-0.2-1.5-0.3-2.2c-0.1-1.1-0.3-2.2-0.4-3l0,0c0,0,0,0,0,0
		c0,0,0-0.1,0-0.2c-0.1-0.7-0.1-1.1-0.1-1.2c0.1-0.2,0.1-0.3,0.2-0.5l0,0c0-0.1,0-0.1,0.1-0.2l0,0c0,0,0,0,0,0
		C-3-12.7-3-12.8-2.9-13l0,0c0,0,0,0,0,0c0,0,0,0,0-0.1l0-0.1c0.1-0.2,0.2-0.4,0.2-0.7c0-0.1,0-0.2-0.2-0.7l0,0
		C-2.9-14.9-2.9-15-2.9-15c-0.1-0.2-0.3-0.3-0.4-0.3c0,0,0,0,0,0l0,0h-0.1c-0.1,0-0.1,0-0.2,0c-0.2,0-0.7,0-1.4,0
		c-0.7,0-1.2,0-1.4,0c-0.1,0-0.1,0-0.2,0h-0.1l0,0c0,0,0,0,0,0c-0.1,0-0.3,0.1-0.4,0.3c0,0,0,0.1-0.1,0.1l0,0c-0.2,0.3-0.4,1-0.4,1
		c0,0.3,0.1,0.5,0.2,0.7l0,0.1l0,0c0,0,0,0,0,0.1c0,0,0,0,0,0l0,0c0.1,0.1,0.1,0.3,0.2,0.4c0,0,0,0,0,0.1l0.1,0.2
		c0.1,0.2,0.2,0.4,0.2,0.6c0,0.1-0.1,0.5-0.2,1.2c0,0,0,0.1,0,0.1l-0.1,0.9c-0.1,0.7-0.2,1.4-0.3,2.2c-0.1,0.8-0.2,1.5-0.3,2.2
		c-0.5-1.7-1.6-5.2-2.4-7.7l-0.6-1.9c-0.1-0.3-0.2-0.5-0.2-0.6c0-0.1,0-0.1-0.1-0.2c-0.1-0.3-0.3-0.8-0.9-1c0,0-0.1,0-0.2,0
		c-0.4,0-1.5,0.4-2.6,0.8c-0.2,0.1-0.4,0.2-0.5,0.2c-0.6,0.2-1.2,0.4-1.9,0.5c-1.3,0.3-2.6,0.6-3.7,1.3c-2,1.3-2,3.1-2,5.1
		c0,0.3,0,0.7,0,1.1c-0.1,5.4-0.1,11.1,0,18.1c0,1.3,0.3,2.5,0.8,3.7c0.4,0.9,1.2,1.8,2,2.6c0.4,0.4,0.7,0.7,1,1.1
		c0,0,0.1,0.1,0.1,0.1c0.2,0.2,0.3,0.4,0.4,0.7c0,0.5,0,1,0.1,1.5l0,0.5c0.1,3.2,0.3,6.5,0.4,9.7c0,0.2,0,0.5,0.1,0.8
		c0,1.9,0,5.5,0,9.1c0,3.7,0,7.3,0,9.2c0,6,4.2,10.3,10.2,10.3h0c0.4,0,0.8,0,1.3,0c0.4,0,0.9,0,1.3,0c0.4,0,0.9,0,1.3,0
		c0.4,0,0.8,0,1.3,0h0c6,0,10.2-4.2,10.2-10.3c0-5.2,0.1-17.7,0.3-23C8,24,8.1,21.4,8.2,18.8c0-0.7,0-1.5,0-2.3c0-1.7,0-3.5,0.4-5.1
		c0.2,0.2,0.5,0.5,0.7,0.7c0.5,0.5,1,1,1.6,1.5c1,0.8,2.2,1.5,3.6,2.2c0.7,0.3,1.4,0.7,2.1,1.1V5.2C16.5,5.2,16.4,5.1,16.4,5z
		 M27.8,14.5c0,0.5,0,1.1,0,1.7l0.1,0C28,15.5,28,15,27.8,14.5z"/>
	<path class="st0" d="M28.9,12.8v3l-1,0.3l-0.1,0c0-0.6,0-1.1,0-1.7c0-0.4,0-0.8,0-1.2L28.9,12.8z"/>
</g>
</svg>
