<?xml version="1.0" encoding="utf-8"?>
<!-- Generator: Adobe Illustrator 19.0.0, SVG Export Plug-In . SVG Version: 6.00 Build 0)  -->
<svg version="1.1" id="Calque_1" xmlns="http://www.w3.org/2000/svg" xmlns:xlink="http://www.w3.org/1999/xlink" x="0px" y="0px"
	 width="13.5px" height="13.5px" viewBox="2.2 2.2 13.5 13.5" style="enable-background:new 2.2 2.2 13.5 13.5;"
	 xml:space="preserve">
<style type="text/css">
	.st0{fill:#FFFFFF;}
</style>
<path class="st0" d="M5,8.1C6,10.2,7.8,11.9,9.9,13l1.6-1.7c0.2-0.2,0.5-0.3,0.8-0.2c0.8,0.3,1.7,0.4,2.7,0.4c0.4,0,0.8,0.3,0.8,0.8
	V15c0,0.4-0.3,0.8-0.8,0.8C8,15.7,2.2,10,2.2,3c0-0.4,0.3-0.8,0.8-0.8h2.6C6,2.2,6.4,2.6,6.4,3c0,0.9,0.2,1.8,0.4,2.7
	c0.1,0.3,0,0.6-0.2,0.8L5,8.1z"/>
</svg>
