<?xml version="1.0" encoding="utf-8"?>
<!-- Generator: Adobe Illustrator 19.0.0, SVG Export Plug-In . SVG Version: 6.00 Build 0)  -->
<svg version="1.1" id="Calque_1" xmlns="http://www.w3.org/2000/svg" xmlns:xlink="http://www.w3.org/1999/xlink" x="0px" y="0px"
	 width="18px" height="18px" viewBox="3 3 18 18" style="enable-background:new 3 3 18 18;" xml:space="preserve">
<style type="text/css">
	.st0{fill:#112B36;}
</style>
<path class="st0" d="M6.6,10.8c1.4,2.8,3.8,5.1,6.6,6.6l2.2-2.2c0.3-0.3,0.7-0.4,1-0.2c1.1,0.4,2.3,0.6,3.6,0.6c0.5,0,1,0.5,1,1V20
	c0,0.5-0.5,1-1,1C10.6,21,3,13.4,3,4c0-0.5,0.5-1,1-1h3.5c0.5,0,1,0.5,1,1c0,1.3,0.2,2.5,0.6,3.6c0.1,0.4,0,0.7-0.3,1L6.6,10.8z"/>
</svg>
