<?xml version="1.0" encoding="utf-8"?>
<!-- Generator: Adobe Illustrator 19.0.0, SVG Export Plug-In . SVG Version: 6.00 Build 0)  -->
<svg version="1.1" id="Layer_1" xmlns="http://www.w3.org/2000/svg" xmlns:xlink="http://www.w3.org/1999/xlink" x="0px" y="0px"
	 width="65px" height="70px" viewBox="-0.5 0.2 65 70" style="enable-background:new -0.5 0.2 65 70;" xml:space="preserve">
<style type="text/css">
	.st0{fill:#96AAB8;}
	.st1{fill:#112B36;}
</style>
<g>
	<g>
		<path class="st0" d="M0.8,13.8l0,0.6l-0.2,7.1l-0.2,7.7c0,1.5,1.6,2.6,2.9,1.8l8-4.2l5.3-2.8l0.2-0.1c0.9-0.5,0.8-1.9-0.2-2.3
			l-3.2-0.7c5.2-8.1,12.7-12.2,22.3-12.7c5.2-0.3,10.1,0.9,14.6,3.5c5.3,3,9.1,7.4,10.8,13.4c0.1,0.5,0.3,1,0.6,1.5
			c0.4,0.6,1.3,0.6,1.9,0.3c0.6-0.4,0.9-1.1,0.7-1.9c-0.6-2.4-1.4-4.8-2.5-7.1c-4.1-8-10.5-13.2-19-15.9c-7.6-2.4-15.2-1.9-22.6,1.1
			C14.7,5.2,10.1,8.8,6.5,13.6c-0.5,0.6-0.9,1.3-1.4,2l-2.2-2.7c-0.1-0.1-0.2-0.2-0.3-0.2c-0.6-0.3-1.3-0.1-1.6,0.4
			C0.9,13.3,0.8,13.5,0.8,13.8z"/>
		<path class="st0" d="M63.2,56.7l0-0.6l0.2-7.1l0.2-7.7c0-1.5-1.6-2.6-2.9-1.8l-8,4.2l-5.3,2.8l-0.2,0.1c-0.9,0.5-0.8,1.9,0.2,2.3
			l3.2,0.7c-5.2,8.1-12.7,12.2-22.3,12.7c-5.2,0.3-10.1-0.9-14.6-3.5c-5.3-3-9.1-7.4-10.8-13.4c-0.1-0.5-0.3-1-0.6-1.4
			c-0.4-0.6-1.3-0.6-1.9-0.3c-0.6,0.4-0.9,1.1-0.7,1.9c0.6,2.4,1.3,4.8,2.5,7.1c4.1,8,10.5,13.2,19,15.9c7.6,2.4,15.2,1.9,22.6-1.1
			c5.6-2.3,10.2-5.9,13.9-10.8c0.5-0.6,0.9-1.3,1.4-2l2.2,2.7c0.1,0.1,0.2,0.2,0.3,0.2c0.6,0.3,1.3,0.1,1.6-0.4
			C63.1,57.2,63.2,56.9,63.2,56.7z"/>
	</g>
	<path class="st1" d="M41.7,46.4c-0.3-1.3-0.8-1.6-2-1.2c-2.2,0.6-4.3,0.9-6.6,0.3c-2.9-0.7-5.1-2.9-5.4-5.8h0.8c3.3,0,6.7,0,10,0
		c1.2,0,1.5-0.4,1.5-1.7c0-1.4-0.3-1.8-1.6-1.8c-3.5,0-7.1,0-10.6,0h-1c0-0.4,0-0.7,0-1.1c0-0.3,0-0.7,0-1.1h1c3.5,0,7.1,0,10.6,0
		c1.2,0,1.6-0.4,1.6-1.7c0-1.3-0.4-1.7-1.5-1.7c-3.3,0-6.7,0-10,0h-0.8c0.4-2.9,2.5-5.1,5.4-5.8c2.2-0.5,4.4-0.3,6.6,0.3
		c1.3,0.4,1.8,0.1,2-1.2c0.2-0.8,0.4-1.7,0.5-2.5c0.2-0.7-0.1-1.2-0.7-1.5c-6.9-3-16.2-1.4-20.2,6.3c-0.6,1.2-0.9,2.5-1.3,3.8
		c-0.1,0.5-0.3,0.7-0.8,0.7c-0.2,0-0.4,0-0.5,0c-1.9,0-2.4,0.7-2,2.5c0.1,0.6,0.6,0.9,1.2,1c0.5,0,0.9,0,1.5,0v1.1v1.1
		c-0.5,0-1,0-1.5,0c-0.6,0-1.1,0.3-1.2,1c-0.4,1.8,0.2,2.5,2,2.5c0.2,0,0.4,0,0.5,0c0.5-0.1,0.6,0.2,0.8,0.7
		c0.4,1.3,0.7,2.6,1.3,3.8c4,7.7,13.3,9.3,20.2,6.3c0.6-0.3,0.9-0.8,0.7-1.5C42,48,41.8,47.2,41.7,46.4z"/>
</g>
</svg>
