<?xml version="1.0" encoding="utf-8"?>
<!-- Generator: Adobe Illustrator 19.0.0, SVG Export Plug-In . SVG Version: 6.00 Build 0)  -->
<svg version="1.1" id="Calque_1" xmlns="http://www.w3.org/2000/svg" xmlns:xlink="http://www.w3.org/1999/xlink" x="0px" y="0px"
	 width="17.5px" height="17.5px" viewBox="3 3 17.5 17.5" style="enable-background:new 3 3 17.5 17.5;" xml:space="preserve">
<style type="text/css">
	.st0{fill:#96AAB8;}
</style>
<path class="st0" d="M15.5,14h-0.8l-0.3-0.3c1-1.1,1.6-2.6,1.6-4.2C16,5.9,13.1,3,9.5,3C5.9,3,3,5.9,3,9.5C3,13.1,5.9,16,9.5,16
	c1.6,0,3.1-0.6,4.2-1.6l0.3,0.3v0.8l5,5l1.5-1.5L15.5,14z M9.5,14C7,14,5,12,5,9.5S7,5,9.5,5C12,5,14,7,14,9.5S12,14,9.5,14z"/>
</svg>
