<?xml version="1.0" encoding="utf-8"?>
<!-- Generator: Adobe Illustrator 19.0.0, SVG Export Plug-In . SVG Version: 6.00 Build 0)  -->
<svg version="1.1" id="Calque_1" xmlns="http://www.w3.org/2000/svg" xmlns:xlink="http://www.w3.org/1999/xlink" x="0px" y="0px"
	 width="18px" height="19.9px" viewBox="3 2 18 19.9" style="enable-background:new 3 2 18 19.9;" xml:space="preserve">
<style type="text/css">
	.st0{fill:#96AAB8;}
</style>
<path class="st0" d="M18,16.1c-0.8,0-1.4,0.3-2,0.8l-7.1-4.1C9,12.5,9,12.2,9,12s0-0.5-0.1-0.7l7-4.1C16.5,7.7,17.2,8,18,8
	c1.7,0,3-1.3,3-3c0-1.7-1.3-3-3-3c-1.7,0-3,1.3-3,3c0,0.2,0,0.5,0.1,0.7L8,9.8C7.5,9.3,6.8,9,6,9c-1.7,0-3,1.3-3,3c0,1.7,1.3,3,3,3
	c0.8,0,1.5-0.3,2-0.8l7.1,4.2c0,0.2-0.1,0.4-0.1,0.7c0,1.6,1.3,2.9,2.9,2.9c1.6,0,2.9-1.3,2.9-2.9S19.6,16.1,18,16.1z"/>
</svg>
