<?xml version="1.0" encoding="utf-8"?>
<!-- Generator: Adobe Illustrator 19.0.0, SVG Export Plug-In . SVG Version: 6.00 Build 0)  -->
<svg version="1.1" id="Layer_1" xmlns="http://www.w3.org/2000/svg" xmlns:xlink="http://www.w3.org/1999/xlink" x="0px" y="0px"
	 width="92px" height="64px" viewBox="-109 10.3 92 64" style="enable-background:new -109 10.3 92 64;" xml:space="preserve">
<style type="text/css">
	.st0{fill:#112B36;}
</style>
<g>
	<path class="st0" d="M-17.2,35.8l-11.6-22.5c-0.5-1-1.7-1.4-2.7-0.9l-7.6,3.9c-0.8,0.4-1.2,1.4-1,2.3c-0.4,0.1-0.7,0.2-0.9,0.3
		c-0.3,0.1-0.5,0.2-0.9,0.3c0,0-0.1,0-0.1,0h0c-0.4,0-0.9-0.2-1.1-0.2c-0.9-0.3-1.8-0.8-2.9-1.4c-0.5-0.3-1-0.6-1.6-0.9
		c-1.9-1-3.9-1.4-6-1.4c-2,0.1-3.9,0.7-6,1.8l-0.2,0.1l-0.2,0.2c-1.1-0.8-2.7-1.8-2.8-1.9c-2.1-1.1-4.9-2.3-6.8-2.5
		c-2.2-0.2-4.4,0.1-6.6,1.1c-0.6,0.3-1.2,0.6-1.8,0.8c-1.1,0.6-2.2,1.1-3.2,1.3c-0.2,0-0.7,0.2-1.1,0.2l-0.3,0
		c-0.4-0.1-0.7-0.2-1-0.4c-0.3-0.1-0.7-0.3-1.1-0.4c-0.2-0.3-0.4-0.6-0.7-0.7l-7.2-4.4c-0.9-0.6-2.2-0.3-2.7,0.7l-13.1,21.4
		c-0.6,0.9-0.3,2.2,0.7,2.8l7.2,4.4c0.4,0.2,0.8,0.3,1.3,0.3c1.9,3.7,5.3,7.5,8.4,9.9c-0.1,0.3-0.1,0.6-0.1,0.9
		c0,2.2,1.3,4.1,3.3,4.9c-0.6,1.5-0.4,3.3,0.7,4.6c0.9,1,2.1,1.6,3.5,1.6c0,1,0.3,2.1,1.1,2.9c0.9,1,2.1,1.6,3.5,1.6
		c0.2,0,0.5,0,0.7-0.1c0.1,0.5,0.4,1,0.7,1.4c0.8,1,2,1.6,3.4,1.6c1,0,1.9-0.3,2.6-0.9l0.4-0.3c1.6,1.3,4.9,4.2,5.4,4.5
		c1.4,1,2.8,1.4,4.2,1.4c1.9,0,3.8-0.9,5.2-2.5c0.2-0.2,0.4-0.5,0.7-0.8c2,1,3.8,1.2,5.6,0.7c1.9-0.5,3.4-1.7,4.4-3.7
		c1.1,0.3,2.6,0.5,2.7,0.5c1.2,0.1,2.4-0.1,3.4-0.6c1.2-0.5,2.3-1.4,2.9-2.6l0.4-0.4l0-0.1c0.1-0.2,0.2-0.4,0.4-0.6
		c1.1,0.3,2.6,0.5,2.7,0.5c0.2,0,0.3,0,0.4,0c1,0,2-0.2,2.9-0.6c2.9-1.2,4.5-4.7,3.6-7.6c-0.2-0.6-0.6-1.3-1-1.9
		c-0.6-0.8-1.2-1.4-2-2.1l-4.1-4.6c2.2-1.7,4-3.7,5.3-6c0.6,0.8,1.7,1.1,2.6,0.6l7.6-3.9C-17.1,38-16.7,36.8-17.2,35.8z M-57.6,20.8
		c1.4-0.8,2.8-1.2,4.1-1.2c1.3-0.1,2.6,0.3,3.9,0.9c0.5,0.2,1,0.5,1.4,0.8c1.2,0.7,2.4,1.3,3.7,1.7c0.7,0.2,1.6,0.4,2.5,0.4
		c0.3,0,0.5,0,0.8-0.1c0.7-0.1,1.2-0.3,1.5-0.5c0,0,0.1,0,0.1,0c0.2,0.3,0.5,0.7,0.6,0.9c1.1,1.7,2.1,3.5,3,5.3l0.4,0.7
		c0.6,1,1.1,2.1,1.7,3.2l0,0.1c0.3,0.5,0.5,1,0.8,1.5c0.1,0.2,0.3,0.5,0.6,1c0.3,0.5,1.2,2,1.5,2.6c-1.1,2.7-2.9,5-5.3,6.8
		c-3.8-4.6-8.7-9.7-15-15.4c-2-2-3.9-3-5.8-2.9c-0.8,0-1.7,0.3-2.4,0.8c-0.2,0.1-8.1,4.9-8.2,4.9c-0.6,0.4-1.4,0.8-2,0.8h-0.1
		c-0.2,0-0.3,0-0.5-0.1c-0.1-0.1-0.2-0.2-0.3-0.3c-0.3-0.4-0.4-0.7-0.4-1.1c0.1-0.5,0.4-1.1,1-1.5L-57.6,20.8z M-86.1,53.5
		c-1.4-0.1-2.5-1.2-2.5-2.6c0-1.4,1.2-2.6,2.6-2.6c1.4,0,2.6,1.2,2.6,2.6c0,0.1,0,0.2,0,0.3v0c-0.1,1.3-1.3,2.3-2.6,2.3
		C-86,53.5-86.1,53.5-86.1,53.5z M-82.6,58.9C-82.6,58.9-82.6,58.9-82.6,58.9c-0.8,0.7-2,0.6-2.7-0.2c-0.6-0.8-0.6-1.9,0.2-2.6
		c0,0,0,0,0.1,0l4-3.4l2.4-2c0.4-0.4,0.9-0.4,1.2-0.4c0.6,0,1.1,0.2,1.4,0.7c0.3,0.4,0.5,0.9,0.4,1.4c0,0.4-0.2,0.7-0.4,1l0,0
		l-6.3,5.3C-82.3,58.6-82.5,58.7-82.6,58.9z M-78.1,63.4c-0.1,0.1-0.2,0.2-0.3,0.2c-0.8,0.4-1.8,0.2-2.3-0.4c-0.6-0.7-0.6-1.7,0-2.4
		l6.2-5.2c0.1-0.1,0.3-0.2,0.4-0.3l0,0c0.4-0.4,0.9-0.4,1.2-0.4c0.6,0,1.1,0.2,1.4,0.7c0.3,0.4,0.5,0.9,0.4,1.4c0,0.4-0.2,0.7-0.4,1
		c-0.1,0.1-0.2,0.2-0.2,0.3L-78.1,63.4z M-68.5,62c0,0.4-0.3,0.8-0.6,1.1l-4.3,3.4c-0.7,0.5-1.7,0.4-2.3-0.3
		c-0.2-0.3-0.4-0.7-0.3-1.1l5.9-5h0c0.5,0,0.9,0.2,1.3,0.6C-68.6,61.2-68.5,61.6-68.5,62z M-32.1,56c0.5,0.5,1,1,1.3,1.5
		c0.5,0.8,0.4,1.4-0.1,2.1c-0.5,0.6-1.3,0.9-2,0.8c-1.3-0.2-2.4-0.7-3.2-1.4c-0.6-0.5-1.2-1-1.7-1.5c-0.4-0.4-0.8-0.8-1.3-1.3
		l-9.1-8.6c-0.4-0.3-0.8-0.7-1.4-0.9c-0.8-0.3-1.8,0-2.3,0.7c-0.4,0.6-0.5,1.4-0.2,2.1c0.2,0.5,0.6,0.9,0.9,1.2l4.5,4.4
		c0.4,0.4,0.8,0.8,1.3,1.3l3.4,3.3c0.5,0.5,1,1,1.4,1.5c0.5,0.9,0.3,1.5,0,1.8c0,0.1-0.1,0.2-0.2,0.3c-0.5,0.6-1.2,0.9-2,0.8
		c-1.2-0.2-2.4-0.7-3.2-1.4c-1.7-1.4-3.2-2.9-5.1-4.7c-0.9-0.9-1.7-1.6-2.4-2.3c-0.2-0.2-0.5-0.5-0.8-0.7c-1-0.8-2.1-0.9-3.1,0
		c-0.6,0.7-0.6,2.1,0.3,3c1,1.1,2.2,2.1,3.2,3.1c0.7,0.6,1.4,1.3,2.1,2c0.6,0.6,1.2,1.4,1.9,2.2c0,0.1,0.1,0.1,0.1,0.2
		c0.1,0.1,0.2,0.4-0.3,1c-1.2,1.3-3.2,1.2-4.8-0.2c-0.7-0.6-1.4-1.2-1.9-1.7l-1-1c-0.5-0.4-0.9-0.9-1.4-1.3l-0.2-0.1
		c-0.4-0.4-1-0.9-1.8-0.9c-0.4,0-1,0.1-1.5,0.7c-1.4,1.6,0,2.9,0.4,3.3l0.1,0.1c0.4,0.4,0.8,0.8,1.2,1.1c0.4,0.4,0.8,0.8,1.2,1.2
		c0.2,0.2,0.3,0.4,0.3,0.5c0,0.1-0.1,0.3-0.4,0.6c-1,0.9-1.9,1.2-2.8,0.7c-0.5-0.3-3.4-2.7-5.3-4.2l0.5-0.4c0.9-0.7,1.5-1.7,1.6-2.9
		c0.1-1.1-0.2-2.2-0.9-3.1c-0.5-0.6-1.1-1-1.8-1.3c0.1-0.3,0.1-0.6,0.2-0.9c0.1-1.2-0.3-2.4-1-3.3c-0.9-1-2.1-1.6-3.5-1.6
		c0-1.1-0.4-2.1-1.1-2.9c-0.9-1-2.1-1.6-3.5-1.6c-1.1,0-2.1,0.4-2.9,1.1l-0.7,0.6c-0.7-2-2.7-3.5-5-3.5c-0.9,0-1.8,0.2-2.5,0.7
		c-2.9-2.3-6.5-6.4-7.6-9.5c1.4-2.9,8.2-13.7,9.6-15.6c0.4-0.5,0.6-0.8,0.8-0.9c0,0,0.1,0,0.1,0c0.4,0.2,0.9,0.4,1.7,0.6
		c0.3,0.1,0.5,0.1,0.8,0.2c1,0.1,2.1-0.1,2.8-0.3c1.5-0.4,2.8-1,4.2-1.7c0.5-0.3,1.1-0.5,1.6-0.7c1.5-0.6,3-0.9,4.4-0.7
		c1.1,0.1,2.2,0.4,3.3,1c0.1,0,1.6,1.1,2.7,1.8l-8.2,6.2c-0.6,0.4-1.1,0.9-1.5,1.5c-0.6,0.9-1,1.8-1.2,2.8c-0.2,1.5,0.3,3,1.2,4.2
		c0.4,0.5,0.8,0.9,1.3,1.2c0,0,0,0,0,0c0.9,0.5,1.8,0.8,2.9,0.8c1.5-0.1,2.9-0.8,4-1.4c0.1,0,7.6-4.6,8.3-5h0
		c0.2-0.1,0.3-0.2,0.5-0.2c0.1,0,0.5,0,1.1,0.4c0.3,0.3,0.6,0.5,0.9,0.8l0,0c6.8,6.2,12.2,11.7,16.2,16.7l0.1,0.1l1.3,1.6l0,0
		L-32.1,56z"/>
</g>
</svg>
