<?xml version="1.0" encoding="utf-8"?>
<!-- Generator: Adobe Illustrator 19.0.0, SVG Export Plug-In . SVG Version: 6.00 Build 0)  -->
<svg version="1.1" id="Calque_1" xmlns="http://www.w3.org/2000/svg" xmlns:xlink="http://www.w3.org/1999/xlink" x="0px" y="0px"
	 width="80px" height="80px" viewBox="-394.9 361.6 80 80" style="enable-background:new -394.9 361.6 80 80;" xml:space="preserve"
	>
<style type="text/css">
	.st0{fill:#96AAB8;}
	.st1{fill:#112B36;}
</style>
<g>
	<path class="st0" d="M-374.9,371.6c-3.9,0-7,3.1-7,7c0,5.3,7,13,7,13s7-7.8,7-13C-367.9,374.7-371,371.6-374.9,371.6z
		 M-374.9,381.1c-1.4,0-2.5-1.1-2.5-2.5s1.1-2.5,2.5-2.5s2.5,1.1,2.5,2.5S-373.5,381.1-374.9,381.1z"/>
</g>
<g>
	<path class="st0" d="M-343.4,381.1h5v-6h-5V381.1z M-343.4,388.1h5v-6h-5V388.1z M-337.4,388.1h5v-6h-5V388.1z M-331.4,388.1h5v-6
		h-5V388.1z M-337.4,381.1h5v-6h-5V381.1z M-331.4,375.1v6h5v-6H-331.4z"/>
</g>
<g>
	<g>
		<path class="st1" d="M-374.9,411.6c-3.9,0-7,3.1-7,7c0,5.3,7,13,7,13s7-7.8,7-13C-367.9,414.7-371,411.6-374.9,411.6z
			 M-374.9,421.1c-1.4,0-2.5-1.1-2.5-2.5s1.1-2.5,2.5-2.5s2.5,1.1,2.5,2.5S-373.5,421.1-374.9,421.1z"/>
	</g>
</g>
<g>
	<g>
		<path class="st1" d="M-343.4,421.1h5v-6h-5V421.1z M-343.4,428.1h5v-6h-5V428.1z M-337.4,428.1h5v-6h-5V428.1z M-331.4,428.1h5v-6
			h-5V428.1z M-337.4,421.1h5v-6h-5V421.1z M-331.4,415.1v6h5v-6H-331.4z"/>
	</g>
</g>
</svg>
