<?xml version="1.0" encoding="utf-8"?>
<!-- Generator: Adobe Illustrator 19.0.0, SVG Export Plug-In . SVG Version: 6.00 Build 0)  -->
<svg version="1.1" id="Capa_1" xmlns="http://www.w3.org/2000/svg" xmlns:xlink="http://www.w3.org/1999/xlink" x="0px" y="0px"
	 width="32px" height="35.8px" viewBox="1367 486.4 32 35.8" style="enable-background:new 1367 486.4 32 35.8;"
	 xml:space="preserve">
<style type="text/css">
	.st0{fill:#55ACEE;}
	.st1{fill:#FFFFFF;}
</style>
<path class="st0" d="M1397.2,514.6l-12.5,7.2c-1,0.6-2.5,0.6-3.5,0l-12.5-7.2c-1-0.6-1.7-1.9-1.7-3v-14.5c0-1.1,0.8-2.4,1.7-3
	l12.5-7.2c1-0.6,2.5-0.6,3.5,0l12.5,7.2c1,0.6,1.7,1.9,1.7,3v14.5C1399,512.7,1398.2,514.1,1397.2,514.6z"/>
<g>
	<g>
		<path class="st1" d="M1392.8,499.9c-0.7,0.3-1.4,0.5-2.2,0.6c0.8-0.5,1.4-1.2,1.7-2.1c-0.7,0.4-1.6,0.8-2.4,0.9
			c-0.7-0.7-1.7-1.2-2.8-1.2c-2.1,0-3.8,1.7-3.8,3.8c0,0.3,0,0.6,0.1,0.9c-3.2-0.2-6-1.7-7.9-4c-0.3,0.6-0.5,1.2-0.5,1.9
			c0,1.3,0.7,2.5,1.7,3.2c-0.6,0-1.2-0.2-1.7-0.5c0,0,0,0,0,0c0,1.9,1.3,3.4,3.1,3.8c-0.3,0.1-0.7,0.1-1,0.1c-0.2,0-0.5,0-0.7-0.1
			c0.5,1.5,1.9,2.6,3.6,2.7c-1.3,1-3,1.6-4.8,1.6c-0.3,0-0.6,0-0.9-0.1c1.7,1.1,3.7,1.7,5.9,1.7c7,0,10.9-5.8,10.9-10.9
			c0-0.2,0-0.3,0-0.5C1391.6,501.3,1392.2,500.6,1392.8,499.9L1392.8,499.9z"/>
	</g>
</g>
</svg>
