<?xml version="1.0" encoding="utf-8"?>
<!-- Generator: Adobe Illustrator 19.0.0, SVG Export Plug-In . SVG Version: 6.00 Build 0)  -->
<svg version="1.1" id="Calque_1" xmlns="http://www.w3.org/2000/svg" xmlns:xlink="http://www.w3.org/1999/xlink" x="0px" y="0px"
	 width="18px" height="18px" viewBox="3 3 18 18" style="enable-background:new 3 3 18 18;" xml:space="preserve">
<style type="text/css">
	.st0{fill:#FFFFFF;}
</style>
<path class="st0" d="M3,5v14c0,1.1,0.9,2,2,2h14c1.1,0,2-0.9,2-2V5c0-1.1-0.9-2-2-2H5C3.9,3,3,3.9,3,5z M15,9c0,1.7-1.3,3-3,3
	c-1.7,0-3-1.3-3-3c0-1.7,1.3-3,3-3C13.7,6,15,7.3,15,9z M6,17c0-2,4-3.1,6-3.1s6,1.1,6,3.1v1H6V17z"/>
</svg>
